<?xml version="1.0" encoding="utf-8"?>
<svg xmlns="http://www.w3.org/2000/svg" viewBox="0 0 64 64" width="64px" height="64px">
  <linearGradient id="TQDriqswrHsX6JiOPB0cta" x1="32" x2="32" y1="4.25" y2="59.38" gradientUnits="userSpaceOnUse" spreadMethod="reflect">
    <stop offset="0" stop-color="#1d3557"/>
    <stop offset="1" stop-color="#457b9d"/>
  </linearGradient>
  <path fill="url(#TQDriqswrHsX6JiOPB0cta)" d="M32,58C17.663,58,6,46.336,6,32S17.663,6,32,6s26,11.664,26,26S46.337,58,32,58z"/>
  <path fill="#fff" d="M32,20c-4.411,0-8,3.589-8,8v4h4v-4c0-2.206,1.794-4,4-4s4,1.794,4,4v4h4v-4C40,23.589,36.411,20,32,20z"/>
  <path fill="#fff" d="M41,31H23c-1.657,0-3,1.343-3,3v12c0,1.657,1.343,3,3,3h18c1.657,0,3-1.343,3-3V34C44,32.343,42.657,31,41,31z M34,39.723V44c0,1.104-0.896,2-2,2s-2-0.896-2-2v-4.277c-0.595-0.347-1-0.984-1-1.723c0-1.104,0.896-2,2-2s2,0.896,2,2C33,38.738,32.595,39.376,34,39.723z"/>
</svg>